<mxfile host="app.diagrams.net" modified="2024-06-22T11:50:07.596Z" agent="Mozilla/5.0 (Macintosh; Intel Mac OS X 10.15; rv:127.0) Gecko/20100101 Firefox/127.0" etag="xV_SJn4EMCdT5fe1AmNc" version="24.6.1" type="device">
  <diagram name="Page-1" id="mbgJdKiQnd_qwq8eiTDx">
    <mxGraphModel dx="1283" dy="731" grid="1" gridSize="10" guides="1" tooltips="1" connect="1" arrows="1" fold="1" page="1" pageScale="1" pageWidth="850" pageHeight="1100" math="0" shadow="0">
      <root>
        <mxCell id="0" />
        <mxCell id="1" parent="0" />
        <mxCell id="qswI0m4blj9nC6sbvFqx-1" value="AccesibilityEvent" style="rounded=0;whiteSpace=wrap;html=1;" vertex="1" parent="1">
          <mxGeometry x="305" y="130" width="120" height="60" as="geometry" />
        </mxCell>
        <mxCell id="qswI0m4blj9nC6sbvFqx-2" value="packageName == null" style="rhombus;whiteSpace=wrap;html=1;" vertex="1" parent="1">
          <mxGeometry x="290" y="230" width="150" height="60" as="geometry" />
        </mxCell>
        <mxCell id="qswI0m4blj9nC6sbvFqx-3" value="" style="ellipse;html=1;shape=endState;fillColor=#000000;strokeColor=#ff0000;" vertex="1" parent="1">
          <mxGeometry x="160" y="460" width="30" height="30" as="geometry" />
        </mxCell>
        <mxCell id="qswI0m4blj9nC6sbvFqx-4" value="" style="endArrow=classic;html=1;rounded=0;entryX=0.5;entryY=0;entryDx=0;entryDy=0;exitX=0;exitY=0.5;exitDx=0;exitDy=0;" edge="1" parent="1" source="qswI0m4blj9nC6sbvFqx-2" target="qswI0m4blj9nC6sbvFqx-3">
          <mxGeometry width="50" height="50" relative="1" as="geometry">
            <mxPoint x="490" y="330" as="sourcePoint" />
            <mxPoint x="540" y="280" as="targetPoint" />
            <Array as="points">
              <mxPoint x="175" y="260" />
            </Array>
          </mxGeometry>
        </mxCell>
        <mxCell id="qswI0m4blj9nC6sbvFqx-6" value="TRUE" style="text;html=1;align=center;verticalAlign=middle;whiteSpace=wrap;rounded=0;" vertex="1" parent="1">
          <mxGeometry x="200" y="230" width="60" height="30" as="geometry" />
        </mxCell>
        <mxCell id="qswI0m4blj9nC6sbvFqx-7" value="Is the lockscreen secure?" style="rhombus;whiteSpace=wrap;html=1;" vertex="1" parent="1">
          <mxGeometry x="475" y="330" width="180" height="70" as="geometry" />
        </mxCell>
        <mxCell id="qswI0m4blj9nC6sbvFqx-8" value="" style="endArrow=classic;html=1;rounded=0;exitX=1;exitY=0.5;exitDx=0;exitDy=0;entryX=0.5;entryY=0;entryDx=0;entryDy=0;" edge="1" parent="1" source="qswI0m4blj9nC6sbvFqx-2" target="qswI0m4blj9nC6sbvFqx-7">
          <mxGeometry width="50" height="50" relative="1" as="geometry">
            <mxPoint x="400" y="380" as="sourcePoint" />
            <mxPoint x="670" y="240" as="targetPoint" />
            <Array as="points">
              <mxPoint x="565" y="260" />
            </Array>
          </mxGeometry>
        </mxCell>
        <mxCell id="qswI0m4blj9nC6sbvFqx-9" value="" style="endArrow=classic;html=1;rounded=0;entryX=0.5;entryY=0;entryDx=0;entryDy=0;exitX=0.5;exitY=1;exitDx=0;exitDy=0;" edge="1" parent="1" source="qswI0m4blj9nC6sbvFqx-1" target="qswI0m4blj9nC6sbvFqx-2">
          <mxGeometry width="50" height="50" relative="1" as="geometry">
            <mxPoint x="400" y="380" as="sourcePoint" />
            <mxPoint x="450" y="330" as="targetPoint" />
          </mxGeometry>
        </mxCell>
        <mxCell id="qswI0m4blj9nC6sbvFqx-10" value="FALSE" style="text;html=1;align=center;verticalAlign=middle;whiteSpace=wrap;rounded=0;" vertex="1" parent="1">
          <mxGeometry x="470" y="230" width="60" height="30" as="geometry" />
        </mxCell>
        <mxCell id="qswI0m4blj9nC6sbvFqx-11" value="FALSE" style="text;html=1;align=center;verticalAlign=middle;whiteSpace=wrap;rounded=0;" vertex="1" parent="1">
          <mxGeometry x="390" y="330" width="60" height="30" as="geometry" />
        </mxCell>
        <mxCell id="qswI0m4blj9nC6sbvFqx-13" value="Setting of pattern lock" style="rhombus;whiteSpace=wrap;html=1;" vertex="1" parent="1">
          <mxGeometry x="490" y="470" width="150" height="60" as="geometry" />
        </mxCell>
        <mxCell id="qswI0m4blj9nC6sbvFqx-14" value="" style="endArrow=classic;html=1;rounded=0;entryX=1;entryY=0.5;entryDx=0;entryDy=0;exitX=0;exitY=0.5;exitDx=0;exitDy=0;" edge="1" parent="1" source="qswI0m4blj9nC6sbvFqx-7" target="qswI0m4blj9nC6sbvFqx-3">
          <mxGeometry width="50" height="50" relative="1" as="geometry">
            <mxPoint x="475" y="365" as="sourcePoint" />
            <mxPoint x="190" y="475" as="targetPoint" />
            <Array as="points">
              <mxPoint x="350" y="365" />
              <mxPoint x="350" y="475" />
            </Array>
          </mxGeometry>
        </mxCell>
        <mxCell id="qswI0m4blj9nC6sbvFqx-15" value="" style="endArrow=classic;html=1;rounded=0;exitX=0.5;exitY=1;exitDx=0;exitDy=0;" edge="1" parent="1" source="qswI0m4blj9nC6sbvFqx-7" target="qswI0m4blj9nC6sbvFqx-13">
          <mxGeometry width="50" height="50" relative="1" as="geometry">
            <mxPoint x="560" y="480" as="sourcePoint" />
            <mxPoint x="380" y="590" as="targetPoint" />
          </mxGeometry>
        </mxCell>
        <mxCell id="qswI0m4blj9nC6sbvFqx-16" value="TRUE" style="text;html=1;align=center;verticalAlign=middle;whiteSpace=wrap;rounded=0;" vertex="1" parent="1">
          <mxGeometry x="570" y="420" width="60" height="30" as="geometry" />
        </mxCell>
        <mxCell id="qswI0m4blj9nC6sbvFqx-17" value="TRUE" style="text;html=1;align=center;verticalAlign=middle;whiteSpace=wrap;rounded=0;" vertex="1" parent="1">
          <mxGeometry x="415" y="470" width="60" height="30" as="geometry" />
        </mxCell>
        <mxCell id="qswI0m4blj9nC6sbvFqx-18" value="" style="endArrow=classic;html=1;rounded=0;entryX=1;entryY=1;entryDx=0;entryDy=0;exitX=0;exitY=0.5;exitDx=0;exitDy=0;" edge="1" parent="1" source="qswI0m4blj9nC6sbvFqx-13" target="qswI0m4blj9nC6sbvFqx-3">
          <mxGeometry width="50" height="50" relative="1" as="geometry">
            <mxPoint x="560" y="480" as="sourcePoint" />
            <mxPoint x="610" y="430" as="targetPoint" />
            <Array as="points">
              <mxPoint x="340" y="500" />
              <mxPoint x="340" y="486" />
            </Array>
          </mxGeometry>
        </mxCell>
        <mxCell id="qswI0m4blj9nC6sbvFqx-19" value="Setting of PIN lock" style="rhombus;whiteSpace=wrap;html=1;" vertex="1" parent="1">
          <mxGeometry x="490" y="610" width="150" height="60" as="geometry" />
        </mxCell>
        <mxCell id="qswI0m4blj9nC6sbvFqx-20" value="TRUE" style="text;html=1;align=center;verticalAlign=middle;whiteSpace=wrap;rounded=0;" vertex="1" parent="1">
          <mxGeometry x="430" y="610" width="60" height="30" as="geometry" />
        </mxCell>
        <mxCell id="qswI0m4blj9nC6sbvFqx-21" value="" style="endArrow=classic;html=1;rounded=0;entryX=0.5;entryY=0;entryDx=0;entryDy=0;exitX=0.5;exitY=1;exitDx=0;exitDy=0;" edge="1" parent="1" source="qswI0m4blj9nC6sbvFqx-13" target="qswI0m4blj9nC6sbvFqx-19">
          <mxGeometry width="50" height="50" relative="1" as="geometry">
            <mxPoint x="560" y="570" as="sourcePoint" />
            <mxPoint x="610" y="520" as="targetPoint" />
          </mxGeometry>
        </mxCell>
        <mxCell id="qswI0m4blj9nC6sbvFqx-22" value="FALSE" style="text;html=1;align=center;verticalAlign=middle;whiteSpace=wrap;rounded=0;" vertex="1" parent="1">
          <mxGeometry x="580" y="560" width="60" height="30" as="geometry" />
        </mxCell>
        <mxCell id="qswI0m4blj9nC6sbvFqx-23" value="" style="endArrow=classic;html=1;rounded=0;entryX=0.5;entryY=1;entryDx=0;entryDy=0;exitX=0;exitY=0.5;exitDx=0;exitDy=0;" edge="1" parent="1" source="qswI0m4blj9nC6sbvFqx-19" target="qswI0m4blj9nC6sbvFqx-3">
          <mxGeometry width="50" height="50" relative="1" as="geometry">
            <mxPoint x="560" y="570" as="sourcePoint" />
            <mxPoint x="610" y="520" as="targetPoint" />
            <Array as="points">
              <mxPoint x="175" y="640" />
            </Array>
          </mxGeometry>
        </mxCell>
        <mxCell id="qswI0m4blj9nC6sbvFqx-24" value="Setting of password lock" style="rhombus;whiteSpace=wrap;html=1;" vertex="1" parent="1">
          <mxGeometry x="490" y="740" width="150" height="60" as="geometry" />
        </mxCell>
        <mxCell id="qswI0m4blj9nC6sbvFqx-25" value="" style="endArrow=classic;html=1;rounded=0;exitX=0.5;exitY=1;exitDx=0;exitDy=0;" edge="1" parent="1" source="qswI0m4blj9nC6sbvFqx-19" target="qswI0m4blj9nC6sbvFqx-24">
          <mxGeometry width="50" height="50" relative="1" as="geometry">
            <mxPoint x="655" y="660" as="sourcePoint" />
            <mxPoint x="655" y="740" as="targetPoint" />
          </mxGeometry>
        </mxCell>
        <mxCell id="qswI0m4blj9nC6sbvFqx-26" value="FALSE" style="text;html=1;align=center;verticalAlign=middle;whiteSpace=wrap;rounded=0;" vertex="1" parent="1">
          <mxGeometry x="570" y="700" width="60" height="30" as="geometry" />
        </mxCell>
        <mxCell id="qswI0m4blj9nC6sbvFqx-27" value="TRUE" style="text;html=1;align=center;verticalAlign=middle;whiteSpace=wrap;rounded=0;" vertex="1" parent="1">
          <mxGeometry x="450" y="720" width="60" height="30" as="geometry" />
        </mxCell>
        <mxCell id="qswI0m4blj9nC6sbvFqx-28" value="" style="endArrow=classic;html=1;rounded=0;entryX=0.5;entryY=1;entryDx=0;entryDy=0;exitX=0;exitY=0.5;exitDx=0;exitDy=0;" edge="1" parent="1" source="qswI0m4blj9nC6sbvFqx-24" target="qswI0m4blj9nC6sbvFqx-3">
          <mxGeometry width="50" height="50" relative="1" as="geometry">
            <mxPoint x="480" y="650" as="sourcePoint" />
            <mxPoint x="530" y="600" as="targetPoint" />
            <Array as="points">
              <mxPoint x="175" y="770" />
            </Array>
          </mxGeometry>
        </mxCell>
        <mxCell id="qswI0m4blj9nC6sbvFqx-29" value="Return" style="text;html=1;align=center;verticalAlign=middle;whiteSpace=wrap;rounded=0;" vertex="1" parent="1">
          <mxGeometry x="90" y="470" width="60" height="30" as="geometry" />
        </mxCell>
        <mxCell id="qswI0m4blj9nC6sbvFqx-31" value="FALSE" style="text;html=1;align=center;verticalAlign=middle;whiteSpace=wrap;rounded=0;" vertex="1" parent="1">
          <mxGeometry x="570" y="810" width="60" height="30" as="geometry" />
        </mxCell>
        <mxCell id="qswI0m4blj9nC6sbvFqx-34" value="AccesibilityServiceManager" style="rounded=0;whiteSpace=wrap;html=1;" vertex="1" parent="1">
          <mxGeometry x="472.5" y="870" width="185" height="60" as="geometry" />
        </mxCell>
        <mxCell id="qswI0m4blj9nC6sbvFqx-36" value="" style="endArrow=classic;html=1;rounded=0;entryX=0.5;entryY=0;entryDx=0;entryDy=0;exitX=0.5;exitY=1;exitDx=0;exitDy=0;" edge="1" parent="1" source="qswI0m4blj9nC6sbvFqx-24" target="qswI0m4blj9nC6sbvFqx-34">
          <mxGeometry width="50" height="50" relative="1" as="geometry">
            <mxPoint x="500" y="860" as="sourcePoint" />
            <mxPoint x="550" y="810" as="targetPoint" />
          </mxGeometry>
        </mxCell>
        <mxCell id="qswI0m4blj9nC6sbvFqx-38" value="Action of multitask button" style="rounded=1;whiteSpace=wrap;html=1;" vertex="1" parent="1">
          <mxGeometry x="345" y="870" width="80" height="60" as="geometry" />
        </mxCell>
        <mxCell id="qswI0m4blj9nC6sbvFqx-39" value="Action of home button" style="rounded=1;whiteSpace=wrap;html=1;" vertex="1" parent="1">
          <mxGeometry x="225" y="870" width="80" height="60" as="geometry" />
        </mxCell>
        <mxCell id="qswI0m4blj9nC6sbvFqx-40" value="" style="endArrow=classic;html=1;rounded=0;entryX=1;entryY=0.5;entryDx=0;entryDy=0;exitX=0;exitY=0.5;exitDx=0;exitDy=0;" edge="1" parent="1" source="qswI0m4blj9nC6sbvFqx-34" target="qswI0m4blj9nC6sbvFqx-38">
          <mxGeometry width="50" height="50" relative="1" as="geometry">
            <mxPoint x="500" y="810" as="sourcePoint" />
            <mxPoint x="550" y="760" as="targetPoint" />
          </mxGeometry>
        </mxCell>
        <mxCell id="qswI0m4blj9nC6sbvFqx-41" value="" style="endArrow=classic;html=1;rounded=0;exitX=0;exitY=0.5;exitDx=0;exitDy=0;entryX=1;entryY=0.5;entryDx=0;entryDy=0;" edge="1" parent="1" source="qswI0m4blj9nC6sbvFqx-38" target="qswI0m4blj9nC6sbvFqx-39">
          <mxGeometry width="50" height="50" relative="1" as="geometry">
            <mxPoint x="390" y="980" as="sourcePoint" />
            <mxPoint x="310" y="970" as="targetPoint" />
          </mxGeometry>
        </mxCell>
        <mxCell id="qswI0m4blj9nC6sbvFqx-42" value="" style="endArrow=classic;html=1;rounded=0;entryX=0.5;entryY=1;entryDx=0;entryDy=0;exitX=0;exitY=0.5;exitDx=0;exitDy=0;" edge="1" parent="1" source="qswI0m4blj9nC6sbvFqx-39" target="qswI0m4blj9nC6sbvFqx-3">
          <mxGeometry width="50" height="50" relative="1" as="geometry">
            <mxPoint x="500" y="810" as="sourcePoint" />
            <mxPoint x="550" y="760" as="targetPoint" />
            <Array as="points">
              <mxPoint x="175" y="900" />
            </Array>
          </mxGeometry>
        </mxCell>
      </root>
    </mxGraphModel>
  </diagram>
</mxfile>
